<?xml version="1.0" standalone="no"?>
<!DOCTYPE svg PUBLIC "-//W3C//DTD SVG 20010904//EN"
 "http://www.w3.org/TR/2001/REC-SVG-20010904/DTD/svg10.dtd">
<svg version="1.0" xmlns="http://www.w3.org/2000/svg"
 width="128.000000pt" height="128.000000pt" viewBox="0 0 128.000000 128.000000"
 preserveAspectRatio="xMidYMid meet">
<metadata>
Created by potrace 1.14, written by Peter Selinger 2001-2017
</metadata>
<g transform="translate(0.000000,128.000000) scale(0.100000,-0.100000)"
fill="#000000" stroke="none">
<path d="M525 1265 c-190 -34 -342 -142 -442 -316 -62 -109 -92 -281 -68 -401
8 -40 14 -45 33 -26 9 9 12 9 12 0 0 -7 -4 -12 -9 -12 -6 0 -8 -9 -6 -20 2
-13 0 -18 -7 -14 -15 9 12 -39 31 -54 9 -8 11 -11 4 -8 -6 4 -15 1 -19 -5 -4
-8 -3 -9 4 -5 7 4 12 1 12 -6 1 -9 5 -7 14 4 7 10 17 14 22 10 4 -4 2 2 -6 12
-8 11 -14 21 -12 23 8 11 0 14 -12 4 -11 -9 -16 -9 -22 0 -5 8 -3 9 6 4 10 -6
12 -4 7 9 -4 10 -2 26 3 37 8 13 7 25 0 40 -10 17 -14 18 -28 7 -15 -12 -16
-11 -3 4 7 10 17 16 21 13 4 -2 6 21 6 53 -9 283 202 542 479 588 56 10 224
11 218 2 -2 -5 1 -8 7 -8 6 0 13 7 16 15 4 8 10 12 15 9 5 -3 9 2 9 10 0 14
-24 22 -52 17 -5 0 -8 4 -8 9 0 6 -5 10 -11 10 -5 0 -7 -6 -3 -12 6 -10 4 -10
-7 0 -15 14 -33 16 -24 2 3 -5 -7 -3 -22 5 -17 9 -31 11 -38 5 -7 -6 -15 -7
-19 -3 -11 11 -27 11 -101 -2z m-438 -830 c0 -8 -4 -12 -9 -9 -5 3 -6 10 -3
15 9 13 12 11 12 -6z"/>
<path d="M826 1233 c2 -7 -6 -15 -17 -18 -10 -4 -17 -11 -13 -16 3 -6 8 -8 11
-5 3 3 14 1 24 -4 12 -7 20 -7 24 0 4 6 12 4 21 -5 9 -8 21 -15 27 -15 7 0 4
7 -5 14 -10 7 -15 15 -13 18 3 3 -2 11 -12 19 -14 12 -15 12 -9 0 6 -9 5 -12
-5 -9 -8 3 -13 11 -11 17 1 7 -2 10 -7 7 -5 -4 -11 -3 -14 1 -2 5 -2 3 -1 -4z
m23 -36 c0 -9 -2 -8 -6 1 -2 6 -10 9 -15 6 -7 -4 -8 -2 -4 5 9 13 26 5 25 -12z"/>
<path d="M904 1201 c7 -11 46 -35 46 -28 0 3 -12 12 -26 22 -15 9 -23 12 -20
6z"/>
<path d="M915 1161 c-3 -5 -2 -12 3 -15 5 -3 9 1 9 9 0 17 -3 19 -12 6z"/>
<path d="M560 1087 c-223 -32 -398 -261 -367 -482 4 -33 8 -65 9 -72 1 -7 6
-9 11 -6 6 4 8 -1 4 -11 -5 -14 -3 -16 12 -11 11 3 22 1 26 -4 3 -6 0 -8 -8
-5 -22 8 -32 -16 -13 -32 9 -8 14 -11 11 -8 -2 4 3 13 11 21 8 8 12 18 10 22
-8 13 -18 74 -19 116 -2 103 35 213 96 282 66 75 180 131 276 135 31 1 47 6
43 13 -3 5 3 3 13 -5 14 -11 19 -12 22 -3 4 10 8 9 20 -2 16 -17 38 -21 28 -5
-3 6 1 7 9 4 9 -3 13 -11 9 -18 -4 -7 -2 -7 7 1 10 9 16 9 27 -2 11 -12 18
-12 33 -3 11 7 17 14 15 17 -3 2 -12 -2 -21 -10 -15 -12 -16 -12 -10 8 6 20
-4 34 -29 40 -5 1 -21 5 -35 8 -59 15 -139 20 -190 12z m248 -45 c3 -10 -11
-11 -46 -3 -2 1 -1 5 2 10 8 12 39 7 44 -7z m-558 -496 c0 -3 -4 -8 -10 -11
-5 -3 -10 -1 -10 4 0 6 5 11 10 11 6 0 10 -2 10 -4z m0 -60 c0 -3 -4 -8 -10
-11 -5 -3 -10 -1 -10 4 0 6 5 11 10 11 6 0 10 -2 10 -4z"/>
<path d="M835 1001 c-3 -5 -2 -12 3 -15 5 -3 9 1 9 9 0 17 -3 19 -12 6z"/>
<path d="M1127 979 c7 -7 15 -10 18 -7 3 3 -2 9 -12 12 -14 6 -15 5 -6 -5z"/>
<path d="M593 908 c-130 -22 -221 -127 -222 -256 -1 -40 2 -51 12 -46 8 5 8 3
-2 -9 -11 -14 -11 -18 2 -23 9 -3 14 -13 12 -23 -2 -10 1 -24 6 -32 7 -11 9
-11 9 0 0 7 6 11 15 8 8 -4 17 -1 21 5 4 7 3 8 -5 4 -8 -5 -10 1 -6 23 3 17 2
31 -3 31 -13 0 3 112 21 145 35 68 103 110 187 117 19 1 38 7 42 13 5 6 8 3 8
-7 0 -11 5 -15 15 -12 8 3 20 2 27 -2 19 -12 38 -14 38 -3 0 5 -5 9 -11 9 -5
0 -8 4 -5 9 9 14 -29 42 -48 35 -9 -3 -16 -2 -16 4 0 14 -47 19 -97 10z m153
-54 c2 -12 0 -14 -9 -5 -6 6 -12 18 -13 27 -2 12 0 14 9 5 6 -6 12 -18 13 -27z
m-320 -289 c-1 -8 -7 -20 -13 -26 -13 -13 -13 7 0 29 11 16 16 15 13 -3z"/>
<path d="M1180 895 c10 -12 10 -18 -1 -32 -12 -14 -12 -16 0 -8 11 6 13 4 8
-9 -4 -10 -1 -19 8 -22 9 -4 14 -20 14 -47 -1 -23 0 -75 0 -116 2 -90 -4 -129
-31 -206 -69 -195 -234 -336 -444 -380 -43 -8 -185 -9 -212 -1 -15 5 -22 4
-20 -4 2 -7 -3 -14 -10 -16 -7 -1 -8 0 -3 2 6 3 7 12 4 21 -5 12 -9 11 -19 -8
-16 -29 -18 -42 -4 -34 6 4 17 1 25 -5 8 -7 22 -9 32 -6 9 4 20 1 24 -6 6 -9
12 -8 25 3 10 8 15 9 11 2 -10 -16 32 -20 113 -11 91 10 115 16 179 42 189 77
329 240 376 440 19 79 20 230 3 220 -10 -5 -10 -4 -1 6 11 12 7 33 -14 90 -4
8 -5 19 -4 23 1 5 -3 6 -9 2 -5 -3 -10 -1 -10 4 0 6 6 11 13 11 9 0 9 2 -1 9
-8 4 -14 12 -15 17 -1 5 -6 8 -10 6 -4 -1 -10 5 -13 13 -4 8 -11 15 -16 15 -6
0 -5 -6 2 -15z m35 -44 c0 -19 -4 -27 -13 -24 -9 4 -10 9 -1 19 9 11 8 14 -2
14 -11 0 -11 2 1 10 8 5 15 10 15 10 1 0 1 -13 0 -29z m23 -66 c-3 -3 -9 2
-12 12 -6 14 -5 15 5 6 7 -7 10 -15 7 -18z m-708 -739 c0 -2 -7 -7 -16 -10 -8
-3 -12 -2 -9 4 6 10 25 14 25 6z"/>
<path d="M1010 866 c0 -2 7 -7 16 -10 8 -3 12 -2 9 4 -6 10 -25 14 -25 6z"/>
<path d="M1010 845 c0 -6 6 -17 13 -24 10 -12 9 -13 -7 -7 -16 5 -17 4 -6 -9
10 -12 10 -15 -1 -15 -9 0 -10 -3 -4 -8 17 -12 20 -33 20 -137 -1 -91 -4 -106
-32 -165 -57 -118 -178 -209 -298 -225 -28 -4 -51 -8 -53 -10 -2 -1 -19 1 -38
5 -21 5 -34 4 -34 -2 0 -7 -4 -7 -13 0 -7 6 -25 13 -40 16 -15 2 -31 7 -36 11
-11 6 -36 -33 -27 -43 3 -3 6 0 6 6 0 7 9 3 20 -8 11 -11 26 -20 32 -21 7 0
22 -3 33 -6 11 -4 63 -6 115 -6 88 0 101 2 170 35 164 77 260 229 260 412 0
58 -16 125 -30 127 -6 1 -14 2 -20 3 -11 1 -14 12 -7 24 2 4 3 2 1 -3 -1 -6 7
-12 17 -12 17 -2 18 0 4 13 -8 9 -12 20 -9 26 4 7 2 8 -4 4 -6 -3 -15 2 -21
11 -6 10 -11 13 -11 8z m41 -93 c-7 -2 -18 1 -23 6 -8 8 -4 9 13 5 13 -4 18
-8 10 -11z m-545 -502 c5 5 15 5 23 1 11 -7 9 -11 -7 -20 -16 -9 -24 -8 -36 5
-9 8 -16 21 -16 27 0 7 6 4 14 -5 8 -11 16 -14 22 -8z m84 -24 c0 -3 -4 -8
-10 -11 -5 -3 -10 -1 -10 4 0 6 5 11 10 11 6 0 10 -2 10 -4z"/>
<path d="M856 787 c3 -10 9 -15 12 -12 3 3 0 11 -7 18 -10 9 -11 8 -5 -6z"/>
<path d="M836 753 c13 -10 14 -13 3 -13 -8 0 -10 -3 -4 -8 15 -11 18 -108 4
-150 -17 -52 -56 -100 -100 -122 -43 -22 -142 -40 -160 -29 -7 4 -19 5 -27 1
-9 -3 -13 -1 -9 4 3 6 -5 10 -18 10 -14 0 -27 -6 -29 -12 -3 -7 0 -11 7 -8 7
2 23 -7 36 -22 12 -14 29 -23 37 -20 8 3 14 2 14 -3 0 -14 83 -12 137 4 99 29
183 142 183 245 0 20 -5 41 -12 48 -8 8 -8 12 -1 12 8 0 8 7 0 25 -7 14 -16
25 -20 25 -5 0 -5 -4 -2 -10 3 -6 -1 -7 -10 -4 -13 5 -13 9 -3 22 10 12 10 14
1 8 -7 -4 -13 -3 -13 2 0 5 -7 9 -16 9 -14 0 -14 -2 2 -14z m32 -58 c-3 -3 -9
2 -12 12 -6 14 -5 15 5 6 7 -7 10 -15 7 -18z m-300 -279 c7 1 8 0 2 -3 -5 -2
-8 -9 -4 -14 11 -18 -3 -8 -27 18 -16 19 -18 23 -4 12 11 -9 26 -15 33 -13z"/>
<path d="M625 702 c-43 -10 -61 -62 -33 -97 22 -29 54 -32 86 -9 49 34 8 120
-53 106z"/>
<path d="M427 499 c7 -7 15 -10 18 -7 3 3 -2 9 -12 12 -14 6 -15 5 -6 -5z"/>
<path d="M70 480 c0 -5 5 -10 11 -10 5 0 7 5 4 10 -3 6 -8 10 -11 10 -2 0 -4
-4 -4 -10z"/>
<path d="M257 445 c-4 -8 -3 -16 1 -19 4 -3 9 4 9 15 2 23 -3 25 -10 4z"/>
<path d="M86 385 c-16 -12 -17 -15 -4 -15 9 0 18 7 22 15 7 18 6 18 -18 0z"/>
<path d="M436 275 c4 -8 8 -15 10 -15 2 0 4 7 4 15 0 8 -4 15 -10 15 -5 0 -7
-7 -4 -15z"/>
<path d="M286 138 c3 -5 10 -6 15 -3 13 9 11 12 -6 12 -8 0 -12 -4 -9 -9z"/>
<path d="M333 125 c0 -7 5 -13 11 -12 6 1 10 -3 9 -10 -2 -7 4 -10 12 -7 11 4
13 2 9 -9 -3 -8 -1 -18 5 -22 6 -3 9 0 6 7 -4 9 2 14 15 14 11 0 20 -4 20 -8
0 -4 -5 -8 -11 -8 -5 0 -7 -5 -4 -11 4 -6 13 -8 20 -5 8 3 15 0 18 -7 2 -7 9
-2 16 11 14 27 12 32 -18 35 -11 1 -21 6 -21 12 0 5 -4 4 -9 -4 -7 -12 -12
-11 -30 1 -11 8 -18 19 -13 24 4 5 3 6 -2 2 -5 -4 -14 -3 -21 2 -8 7 -12 5
-12 -5z m120 -48 c7 3 8 2 4 -2 -14 -16 -36 -14 -29 3 4 10 7 12 10 4 2 -7 9
-9 15 -5z"/>
</g>
</svg>
