<svg width="128" height="128" viewBox="0 0 128 128" fill="none" xmlns="http://www.w3.org/2000/svg">
<g clip-path="url(#clip0_2356_118)">
<rect width="128" height="128" rx="64" fill="white"/>
<g clip-path="url(#clip1_2356_118)">
<path d="M156 -27H-25V154H156V-27Z" fill="#FFAA00"/>
<g style="mix-blend-mode:multiply" opacity="0.7">
<path d="M79.3892 101.906L72.7149 108.587H64.8715V105.765L85.6111 84.9812C86.3642 84.2283 86.9603 83.3335 87.3648 82.3485C87.7694 81.3635 87.9744 80.308 87.9679 79.2432V77.9863C87.9513 75.8303 87.0832 73.7683 85.5528 72.2497C84.0224 70.7311 81.9538 69.8789 79.7978 69.879H66.317L82.9652 53.193C83.6409 52.518 84.1756 51.7152 84.5381 50.8316C84.9007 49.9479 85.0838 49.001 85.0769 48.0459V46.8518C85.0637 44.9192 84.2875 43.07 82.9174 41.707C81.5472 40.3439 79.6941 39.5773 77.7615 39.5741H55.1679L40.7131 54.0918V48.8754L64.507 24.9935L64.4693 16.8234L40.6754 40.7053V39.5866H33.4039V35.621L43.9434 25.0124L43.9057 16.8422L33.3411 27.4194V25.0124L-25 83.4854V154H37.3256L95.9055 95.2755C93.8153 97.3779 91.3299 99.046 88.5924 100.184C85.855 101.322 82.9194 101.907 79.9549 101.906H79.3892Z" fill="#FFAA00"/>
</g>
<path d="M95.1136 61.3758C97.4172 63.4835 99.2614 66.0436 100.531 68.8962C101.8 71.7488 102.468 74.8326 102.492 77.9549V79.2118C102.51 82.1839 101.941 85.1303 100.817 87.8817C99.6923 90.633 98.0355 93.1351 95.9412 95.244C93.8468 97.3529 91.3564 99.0272 88.6129 100.17C85.8694 101.314 82.927 101.904 79.9549 101.906H79.4018L79.4332 108.587H64.8715L64.8401 101.906H58.8759L58.9073 108.587H44.3519V101.906H33.7056L33.6365 87.382H40.8513L40.7633 69.9042L40.6942 55.3299L40.6188 39.6181H33.4039L33.3285 25.0627H43.9434L43.9057 16.8925H58.4548L58.4925 25.0627H64.4567L64.419 16.8925H78.9744L79.0122 25.1444C84.562 25.4953 89.773 27.9353 93.5965 31.9733C97.4199 36.0113 99.5721 41.3476 99.6198 46.9084V48.1024C99.6331 52.9045 98.0477 57.5743 95.1136 61.3758ZM87.9428 79.2432V77.9863C87.9262 75.8304 87.0581 73.7684 85.5277 72.2497C83.9973 70.7311 81.9286 69.8789 79.7726 69.879H55.3188L55.4005 87.3568H79.8669C80.9303 87.3577 81.9834 87.1483 82.9656 86.7408C83.9479 86.3333 84.8399 85.7356 85.5904 84.9822C86.3409 84.2288 86.9351 83.3345 87.3388 82.3507C87.7425 81.3669 87.9477 80.3129 87.9428 79.2495M55.1679 39.5741L55.2496 55.2859H77.8306C78.7846 55.2867 79.7293 55.099 80.6105 54.7336C81.4916 54.3682 82.2919 53.8322 82.9653 53.1565C83.6387 52.4808 84.1719 51.6786 84.5342 50.7962C84.8966 49.9138 85.0811 48.9684 85.0769 48.0145V46.8204C85.0637 44.8878 84.2875 43.0386 82.9174 41.6756C81.5472 40.3125 79.6941 39.5459 77.7615 39.5427H55.1679" fill="white"/>
</g>
</g>
<defs>
<clipPath id="clip0_2356_118">
<rect width="128" height="128" rx="64" fill="white"/>
</clipPath>
<clipPath id="clip1_2356_118">
<rect width="181" height="181" fill="white" transform="translate(-25 -27)"/>
</clipPath>
</defs>
</svg>
