<svg width="128" height="128" viewBox="0 0 128 128" fill="none" xmlns="http://www.w3.org/2000/svg">
<g clip-path="url(#clip0_2201_442)">
<rect width="128" height="128" rx="64" fill="white"/>
<g clip-path="url(#clip1_2201_442)">
<path d="M159 -19H-14V154H159V-19Z" fill="#FFAA00"/>
<path d="M98.7961 67.5692C96.2227 64.3629 92.6768 62.0799 88.6929 61.0643C91.6925 59.7109 94.2397 57.5236 96.031 54.763C97.8223 52.0025 98.7821 48.7851 98.7961 45.4944C98.8694 42.5454 98.1526 39.6306 96.7201 37.052C95.363 34.6645 93.4674 32.6267 91.1841 31.1007C88.9385 29.578 86.3882 28.5626 83.7105 28.1252C80.9821 27.7281 78.2321 27.4971 75.4757 27.4332V-15H63.3657V27.4332H55.8229V-15H43.8513V27.4332H31.1185V39.3356H42.1213V87.2912H31.1185V99.2627H43.8513V145.5H55.8229V99.2627H63.3657V145.5H75.3373V99.1243C79.5585 99.1243 82.2573 99.1244 84.0565 98.7784C87.5427 98.4882 90.899 97.3218 93.8137 95.3876C96.4723 93.4748 98.6127 90.9301 100.042 87.9832C101.529 85.0184 102.31 81.7502 102.325 78.4335C102.397 74.5194 101.154 70.6942 98.7961 67.5692ZM64.9573 39.3356C71.8773 39.3356 75.8909 39.3356 77.3441 39.3356C79.4134 39.4546 81.3634 40.3432 82.8109 41.8268C84.1055 43.3811 84.8145 45.3399 84.8145 47.3628C84.8145 49.3856 84.1055 51.3445 82.8109 52.8988C81.1919 54.3862 79.1208 55.2877 76.9289 55.4592C75.5449 55.4592 72.0849 55.4592 66.4105 55.4592H56.6533V39.3356H64.9573ZM85.3021 83.8312C83.9057 85.3746 82.0274 86.3991 79.9737 86.7376C76.6894 87.1121 73.3823 87.2509 70.0781 87.1527H56.6533V67.9152H68.3481C72.6655 67.6942 76.9932 68.0432 81.2193 68.9532C83.038 69.5457 84.616 70.7109 85.7173 72.2747C86.808 73.885 87.3648 75.7975 87.3089 77.7415C87.4106 79.949 86.6963 82.1167 85.3021 83.8312Z" fill="white"/>
</g>
</g>
<defs>
<clipPath id="clip0_2201_442">
<rect width="128" height="128" rx="64" fill="white"/>
</clipPath>
<clipPath id="clip1_2201_442">
<rect width="173" height="173" fill="white" transform="translate(-14 -19)"/>
</clipPath>
</defs>
</svg>
