<svg width="33" height="33" viewBox="0 0 33 33" fill="none" xmlns="http://www.w3.org/2000/svg">
<path d="M16.533 0.133057C7.68629 0.133057 0.532959 7.29706 0.532959 16.1531C0.532959 17.9331 0.836959 19.6291 1.35696 21.2331H6.12629V7.77172L16.533 18.1931L26.9396 7.77306V21.2331H31.709C32.2276 19.6291 32.533 17.9331 32.533 16.1531C32.533 7.29972 25.3796 0.133057 16.533 0.133057ZM14.149 20.5424L9.59296 15.9811V24.4491H2.87696C5.69296 29.0517 10.7703 32.1331 16.533 32.1331C22.2956 32.1331 27.4156 29.0517 30.193 24.4477H23.473V15.9797L18.9583 20.5411L16.5743 22.9277L14.1556 20.5411H14.149V20.5424Z" fill="#FF9400"/>
</svg>
